# xmcd
#
# Track frame offsets:
#	150
#	20455
#	33413
#	46335
#	61248
#	76352
#	91490
#	105895
#	120840
#	138390
#	153490
#	169695
#
# Disc length: 2424
#
# Revision: 2
# Processed by: cddbd v1.5.1PL0 Copyright (c) Steve Scherf et al.
# Submitted via: audiograbber 1.80.04
# Normalized: r1:TDELIM( - )
#
DISCID=8809760c
DTITLE=Various Artist - Hey Trucker
DYEAR=1996
DGENRE=
TTITLE0=Gunther Gabriel - Ich bin ein Straßenhund
TTITLE1=Hanna and Daana - Und dann fühl` ich deine Nähe
TTITLE2=Trucks aus dem Zillertal - Sie liebt nur Kris Kristofferson
TTITLE3=Billy White - Tramperleben-Tramperblut
TTITLE4=Iris Mc Collins - Wennder Himmel weint
TTITLE5=Mike Herman and Booze Company - Hey Trucker
TTITLE6=Gunter Gabriel - Den Rocker kriegst du nicht mehr aus mir raus
TTITLE7=Greyhounds - Nimm mich mit
TTITLE8=Billy White - Südhessen Highway
TTITLE9=Joe Hodgkins Boss Band - Wochenendfieber
TTITLE10=Max Zwo - Hey, es ist wieder Sommer
TTITLE11=Rubber Duck - Das hast du nun davon
EXTD=
EXTT0=
EXTT1=
EXTT2=
EXTT3=
EXTT4=
EXTT5=
EXTT6=
EXTT7=
EXTT8=
EXTT9=
EXTT10=
EXTT11=
PLAYORDER=
